<svg width="1024" height="1024" xmlns="http://www.w3.org/2000/svg" t="1653968665398" class="icon" version="1.1" p-id="1002">
 <g>
  <title>Layer 1</title>
  <path d="m565.0963,289.18518s-0.94815,0 0,0c-110.93334,-20.85925 -208.5926,40.77038 -237.98519,148.85926c-14.22222,53.0963 -24.65185,101.45186 44.56296,221.86667c14.22223,25.6 11.37778,70.16296 8.53334,95.76296c-1.8963,14.22223 64.47407,36.02963 89.12592,42.66667l95.76297,-509.15556z" fill="#f0f0f0" p-id="1003" id="svg_1"/>
  <path d="m732.91852,513.8963c11.37778,-111.88149 -56.88889,-203.85186 -166.87408,-224.71111l-0.94814,0l-95.76297,509.15555c25.6,2.84444 94.81482,6.63704 98.60741,-7.58518c6.63704,-25.6 20.85926,-67.31852 42.66667,-86.28149c109.03703,-86.28148 116.62222,-135.58518 122.31111,-190.57777z" fill="#f0f0f0" p-id="1004" id="svg_2"/>
  <path d="m467.43704,806.87407c-7.58519,-0.94814 -12.32593,-7.58518 -14.22223,-14.22222l-38.87407,-256c-0.94815,-5.68889 0.94815,-11.37778 4.74074,-15.17037c3.79259,-3.79259 9.48148,-5.68889 15.17037,-4.74074l167.82222,31.28889c5.68889,0.94815 10.42963,4.74074 12.32593,9.48148c1.8963,4.74074 1.8963,11.37778 -0.94815,16.11852l-127.05185,224.71111c-3.79259,6.63704 -11.37778,10.42963 -18.96296,8.53333zm-14.22223,-251.25926l27.4963,182.9926l91.97037,-160.23704l-119.46667,-22.75555l0,-0.00001z" fill="#cccccc" p-id="1005" id="svg_3"/>
  <path d="m375.46667,709.21482l-25.6,137.48148c0,2.84444 1.89629,5.68889 7.58518,10.42963l65.42222,54.99259c5.68889,4.74074 15.17037,8.53333 23.70371,10.42963l36.02963,-193.42222l-107.14074,-19.91111z" fill="#2D4375" p-id="1006" id="svg_4"/>
  <path d="m482.60741,729.12593l-36.02963,193.42222c9.48148,1.89629 18.01481,1.89629 25.6,-0.94815l80.59259,-27.4963c6.63704,-1.89629 10.42963,-4.74074 11.37778,-6.63703l25.6,-138.42963l-107.14074,-19.91111z" fill="#1E2D4F" p-id="1007" id="svg_5"/>
  <path d="m593.54074,807.82222c1.8963,-7.58518 -3.79259,-15.17037 -11.37778,-16.11852l-107.14074,-19.91111l-4.74074,27.4963l107.14074,19.91111c6.63704,0.94815 14.22222,-3.79259 16.11852,-11.37778z" fill="#CEEFF6" p-id="1011" id="svg_9"/>
  <path d="m366.93333,750.93333c-7.58518,-1.89629 -15.17037,3.7926 -16.11851,11.37778c-1.8963,7.58519 3.79259,15.17037 11.37777,16.11852l107.14074,19.91111l4.74074,-27.4963l-107.14074,-19.91111zm-10.42963,57.83704c-7.58518,-1.8963 -15.17037,3.79259 -16.11851,11.37778c-1.8963,7.58518 3.79259,15.17037 11.37777,16.11852l107.14074,19.91111l4.74074,-27.4963l-107.14074,-19.91111z" fill="#FFFFFF" p-id="1012" id="svg_10"/>
  <path d="m570.78518,848.59259l-107.14074,-19.91111l-4.74074,27.4963l107.14074,19.91111c7.58519,1.8963 15.17037,-3.79259 16.11852,-11.37778c1.8963,-7.58518 -2.84444,-15.17037 -11.37778,-16.11852z" fill="#CEEFF6" p-id="1013" id="svg_11"/>
 </g>

</svg>